<svg version="1.1" xmlns="http://www.w3.org/2000/svg" viewBox="0 0 100 96.164" fill="#fff"><path d="M52.197,66.921c0.678,0.094,1.329,0.179,1.915,0.179c5.42-0.043,9.431-3.412,12.319-6.343c3.587-3.64,7.972-5.265,12.678-4.706c0.315,0.039,0.606-0.189,0.644-0.507c0.039-0.318-0.188-0.606-0.506-0.644c-5.078-0.608-9.792,1.139-13.64,5.043c-0.99,1.005-2.12,2.063-3.394,3.007c-0.013-0.001-0.025-0.004-0.038-0.004c-0.006,0-0.012,0-0.018,0c-1.442,0-2.741-0.583-4.115-1.198c-0.39-0.174-0.787-0.352-1.191-0.517c8.173-1.344,14.43-8.456,14.43-17.004c0-4.844-2.012-9.225-5.24-12.359c0.352-0.067,0.697-0.228,1.014-0.532c0.596-0.573,0.872-1.19,0.937-1.821c0.203-0.029,0.451-0.009,0.756,0.1c0.42,0.15,0.861,0.552,1.049,0.737c0.024,1.613,0.429,4.193,1.885,8.173c1.561,4.267,0.533,9.582,0.522,9.635c-0.062,0.313,0.142,0.619,0.455,0.681c0.039,0.008,0.077,0.011,0.114,0.011c0.271,0,0.512-0.19,0.567-0.466c0.046-0.23,1.104-5.682-0.57-10.259c-2.655-7.259-1.616-9.473-1.58-9.545c0.022-0.038,0.038-0.077,0.051-0.117c4.704-5.932,13.03-8.523,13.03-8.523c-7.867,0.551-12.294,5.772-12.294,5.772c1.22-2.392,3.951-5.551,6.576-7.879c1.328-1.178,3.655-2.67,3.655-2.67c-4.255,0.762-11.277,8.919-11.277,8.919C71.31,22.439,77.852,8.24,77.852,8.24c-3.937,5.093-6.505,10.127-8.136,14.096c-0.269-0.921-0.324-1.931-0.377-2.983c-0.031-0.622-0.063-1.265-0.146-1.883c-0.027-0.201-0.052-0.405-0.077-0.61c-0.215-1.764-0.459-3.762-2.08-5.018c-1.544-1.197-3.589-0.872-5.323-0.273c-0.255-1.116-1.264-2.979-3.254-6.066c-0.147-0.228-0.253-0.392-0.299-0.469c-0.668-1.124-1.429-2.098-2.262-2.894C54.415,0.72,52.735,0,50.908,0c-2.305,0-4.674,1.177-6.67,3.313c-0.434,0.464-5.282,7.355-4.957,9.299c0.052,0.311,0.22,0.556,0.451,0.678c0.018,0.011,1.042,0.535,2.851,1.048c0.064,0.697,0.313,1.2,0.627,1.552c-1.991-1.351-4.234-2.408-6.46-1.428c-3.336,1.468-3.056,5.463-2.852,8.379c0.018,0.25,0.035,0.495,0.049,0.73c0.132,2.163-0.05,4.311-0.557,6.564c-0.075,0.334-0.155,0.675-0.237,1.023c-0.588,2.504-1.244,5.299-0.646,7.877c-1.028-0.572-2.017-1.465-2.694-2.473c-0.179-0.266-0.539-0.336-0.804-0.158c-0.266,0.178-0.337,0.538-0.158,0.804c1.056,1.573,2.788,2.912,4.412,3.413c1.518,0.468,2.594,1.456,3.385,3.109c0.04,0.083,0.099,0.146,0.166,0.2c-0.001,0.099-0.007,0.197-0.007,0.296c0,8.385,6.021,15.388,13.965,16.921c-0.41,0.15-0.818,0.315-1.231,0.482c-0.396,0.16-0.798,0.324-1.215,0.479c-7.608,2.823-15.214,0.738-19.557-5.303c0.006-0.012,0.013-0.023,0.02-0.035c0.244-0.422,0.497-0.86,0.729-1.299c0.821-1.553,1.613-3.429,1.261-5.575c-0.168-1.027-0.447-2.003-0.717-2.947c-0.588-2.059-1.145-4.004-0.464-6.18c0.096-0.305-0.074-0.63-0.38-0.726c-0.305-0.095-0.63,0.075-0.726,0.38c-0.784,2.506-0.154,4.712,0.456,6.844c0.26,0.912,0.53,1.854,0.688,2.816c0.296,1.807-0.411,3.464-1.142,4.846c-0.2,0.377-0.419,0.76-0.635,1.134c-0.082,0.012-0.163,0.04-0.236,0.089c-0.233,0.155-0.317,0.45-0.216,0.7c-0.492,0.872-0.961,1.778-1.257,2.762c-0.295,0.98-0.373,1.993-0.332,3.001l-4.123,0.644c-0.078,0.012-0.148,0.055-0.195,0.119c-0.047,0.064-0.066,0.144-0.054,0.222l0.271,1.732c0.012,0.079,0.055,0.148,0.119,0.195c0.051,0.038,0.113,0.058,0.176,0.058c0.016,0,0.031-0.001,0.046-0.004l4.028-0.629c0.099,0.571,0.213,1.131,0.324,1.673c0.062,0.308,0.125,0.613,0.183,0.915c0.054,0.277,0.296,0.469,0.568,0.469c0.037,0,0.074-0.003,0.111-0.011c0.314-0.061,0.52-0.365,0.458-0.679c-0.059-0.305-0.122-0.614-0.185-0.926c-0.11-0.537-0.22-1.079-0.315-1.621l0.179-0.028c0.163-0.025,0.274-0.178,0.249-0.341l-0.27-1.731c-0.012-0.078-0.055-0.149-0.119-0.195c-0.063-0.047-0.144-0.065-0.222-0.054l-0.079,0.012c-0.025-0.85,0.049-1.685,0.29-2.487c0.213-0.706,0.527-1.372,0.886-2.038c3.283,4.293,8.147,6.604,13.487,6.604c2.307,0,4.703-0.431,7.097-1.32c0.428-0.159,0.842-0.327,1.248-0.491c1.841-0.747,3.43-1.392,5.404-0.777c0.735,0.229,1.439,0.545,2.186,0.879c1.009,0.453,2.045,0.911,3.163,1.143c-1.917,1.157-4.118,1.971-6.627,1.991c-0.521-0.002-1.112-0.08-1.746-0.167c-1.443-0.201-3.078-0.428-4.35,0.318c-1.622,0.952-1.449,2.778-1.323,4.112c0.022,0.237,0.045,0.47,0.057,0.692c0.103,1.821-0.511,3.11-1.534,4.602c-1.864,2.715-1.917,5.131-0.161,7.388c0.114,0.147,0.285,0.224,0.458,0.224c0.125,0,0.25-0.04,0.355-0.122c0.252-0.196,0.298-0.561,0.102-0.813c-1.425-1.832-1.361-3.745,0.201-6.021c1.129-1.646,1.857-3.18,1.736-5.323c-0.013-0.236-0.037-0.483-0.06-0.736c-0.139-1.465-0.161-2.465,0.756-3.003C49.519,66.549,50.88,66.738,52.197,66.921z M55.099,2.978c0.757,0.724,1.452,1.615,2.066,2.648c0.049,0.083,0.163,0.259,0.321,0.504c2.661,4.129,3.11,5.442,3.141,5.858c-0.042,0.018-0.083,0.035-0.124,0.053c-1.875,0.762-3.78,1.316-5.7,1.669l-0.098-0.072l-0.792-1.54l-1.548-2.274l-0.114-0.146l-1.472,0.08l-1.518-1.806l-1.389-1.579l-0.14-1.778l0.02-0.681l-0.42-0.538L47.06,3.515l-0.488-0.751c1.393-1.043,2.888-1.605,4.336-1.605C52.426,1.159,53.837,1.771,55.099,2.978z M49.881,15.329c0.001,0,0.001,0,0.001,0c2.658,0,5.309-0.387,7.921-1.135c-0.182,0.554-0.529,0.636-0.569,0.644l-0.3,0.031l-0.146,0.264c-0.613,1.107-1.387,2.576-1.934,4.124c-0.484,1.371-1.47,2.26-2.775,2.504c-1.48,0.277-3.146-0.317-4.144-1.478c-0.287-0.333-1.911-2.973-2.867-4.558l-0.151-0.233l-0.268-0.042c-0.122-0.019-0.622-0.138-0.831-0.795C45.441,15.026,47.494,15.329,49.881,15.329z M44.203,16.535c0.021,0.033,0.045,0.075,0.068,0.113c-0.078-0.058-0.157-0.116-0.236-0.174C44.093,16.497,44.149,16.518,44.203,16.535z M33.896,39.622c-0.945-2.511-0.239-5.529,0.387-8.197c0.082-0.351,0.163-0.696,0.239-1.034c0.531-2.362,0.721-4.615,0.582-6.889c-0.014-0.238-0.032-0.486-0.049-0.74c-0.191-2.717-0.428-6.098,2.162-7.238c2.305-1.013,4.849,0.907,7.093,2.602c0.552,0.417,1.075,0.811,1.574,1.146c0.52,0.829,0.991,1.557,1.172,1.767c1.051,1.224,2.693,1.948,4.299,1.948c0.315,0,0.629-0.028,0.938-0.085c1.729-0.324,3.027-1.48,3.655-3.258c0.482-1.367,1.138-2.643,1.735-3.731c0.549-0.201,1.246-0.798,1.37-2.104c0.571-0.19,1.14-0.398,1.706-0.625c0.032-0.008,0.064-0.017,0.096-0.031c0.058-0.025,0.119-0.051,0.178-0.076c0.067-0.027,0.135-0.051,0.202-0.079c0.014-0.006,0.026-0.016,0.04-0.022c1.605-0.66,3.699-1.264,5.053-0.215c1.238,0.959,1.442,2.627,1.639,4.241c0.025,0.21,0.051,0.418,0.079,0.624c0.076,0.571,0.105,1.162,0.137,1.788c0.076,1.515,0.162,3.077,0.923,4.472c-0.41,1.082-0.744,2.062-1.011,2.907l-0.758,0.119c-0.298-0.576-0.652-1.126-0.974-1.623c-0.496-0.769-1.009-1.564-1.034-2.029c-0.017-0.32-0.303-0.562-0.609-0.548c-0.32,0.017-0.565,0.29-0.548,0.609c0.041,0.773,0.586,1.618,1.218,2.596c1.264,1.957,2.065,3.432,0.863,4.587c-0.458,0.439-1.157,0.231-2.137-0.25c-0.001,0-0.002-0.001-0.004-0.001c-2.834-2.047-6.311-3.258-10.066-3.258c-6.136,0-11.53,3.225-14.585,8.067c-0.938,0.438-1.555,0.476-2.096,0.124c-1.5-0.974-1.005-2.739-0.203-4.946c0.083-0.229,0.163-0.449,0.235-0.657c0.568-1.659,0.896-3.437,1.002-5.434c0.017-0.32-0.229-0.593-0.548-0.61c-0.322-0.013-0.593,0.229-0.61,0.548c-0.101,1.889-0.408,3.564-0.941,5.12c-0.069,0.202-0.146,0.416-0.228,0.637c-0.689,1.896-1.73,4.761,0.662,6.314c0.478,0.311,0.961,0.428,1.43,0.428c0.155,0,0.308-0.015,0.459-0.038c-0.836,1.673-1.408,3.5-1.661,5.427C36.163,40.842,35.148,40.07,33.896,39.622z M37.967,44.228c0-6.47,3.844-12.056,9.366-14.604l-0.812,1.275l0.401,0.801l-1.336,1.202l-0.267,3.606l0.802,2.404l0.533-1.469l1.069,2.939l2.619,1.411l1.671,0.642l1.069,1.736l1.585,0.886l-0.784,2.32l-0.668,0.801l-0.016,1.953l2.555,2.321l-0.3,3.486l-1.187,3.007l0.524,0.571l1.479-1.505l2.671-1.736l2.004-1.335l1.947-1.008l1.837-1.925l1.558-1.743l-0.521-1.96l-2.283-1.112l-0.668-1.603l-3.206-1.202l-2.285-0.912l-0.622-0.207l-1.362,0.978l-1.857-0.437l0.049-1.459l-1.007-1.155l-0.562-0.444l-0.101-1.305l-1.468,0.801l-0.89-1.066l1.023-1.872l2.537-0.134l0.883,0.288l0.186,1.181L54.6,38.65l-0.06-1.393l1.541-1.452l0.19-1.033l2.328-1.055l1.541-0.607l-0.267-0.474l-0.562-0.741L57.325,30l-1.393,0.089l-0.195,1.344l-1.469-0.667l-0.408-1.062l1.422-0.592l1.391,0.186l-0.4-0.534l-1.997-0.244l-1.067,0.237l-2.21-0.312c0.987-0.19,2.005-0.293,3.046-0.293c8.865,0,16.077,7.212,16.077,16.077s-7.212,16.077-16.077,16.077C45.179,60.305,37.967,53.092,37.967,44.228z"/><path d="M88.469,56.537c-0.055-0.315-0.352-0.527-0.67-0.472c-0.315,0.055-0.527,0.355-0.472,0.67c0.992,5.727-6.695,7.804-11.782,9.178c-0.651,0.176-1.266,0.342-1.797,0.5l-1.905,0.564c-3.912,1.155-7.957,2.349-11.856,3.781c-0.354,0.13-0.74,0.263-1.146,0.404c-2.611,0.904-5.861,2.029-7.27,4.282c-0.169,0.271-0.087,0.629,0.184,0.799c0.096,0.059,0.202,0.088,0.307,0.088c0.193,0,0.382-0.097,0.492-0.272c1.191-1.906,4.355-3.001,6.666-3.801c0.414-0.143,0.806-0.279,1.167-0.411c3.864-1.419,7.891-2.607,11.785-3.757l1.907-0.564c0.518-0.154,1.126-0.318,1.77-0.492C81.006,65.638,89.641,63.306,88.469,56.537z"/><path d="M51.677,69.424c0-0.32-0.259-0.579-0.58-0.579c-0.802,0-1.7,0.646-1.7,1.51c0,0.32,0.26,0.58,0.58,0.58c0.32,0,0.58-0.259,0.58-0.58c0-0.123,0.278-0.351,0.541-0.351C51.417,70.004,51.677,69.745,51.677,69.424z"/><path d="M27.92,70.185c-0.312-0.065-0.62,0.136-0.686,0.449c-0.176,0.845-0.938,1.082-2.169,1.371c-0.213,0.05-0.421,0.1-0.618,0.153c-1.797,0.494-2.855,1.515-3.893,2.896c-1.416,1.884-2.878,2.434-4.742,1.782c-0.303-0.105-0.633,0.053-0.738,0.356c-0.105,0.302,0.054,0.632,0.355,0.738c0.628,0.219,1.229,0.329,1.806,0.329c1.584,0,2.985-0.831,4.246-2.509c0.92-1.225,1.788-2.067,3.273-2.475c0.183-0.05,0.377-0.096,0.576-0.143c1.139-0.268,2.699-0.634,3.039-2.263C28.435,70.557,28.233,70.25,27.92,70.185z"/><path d="M53.815,16.576c-0.004,0.058-0.009,0.116-0.013,0.173c0.283,0.104,0.612,0.347,0.835,0.272c0.238-0.079,0.374-0.461,0.558-0.707c0.091-0.123,0.184-0.246,0.293-0.353c0.051-0.05,0.141-0.06,0.213-0.087c0.08-0.031,0.16-0.061,0.239-0.091c-0.039-0.041-0.078-0.082-0.117-0.123c-1.1,0.243-2.237,0.408-2.983,1.401c0.029,0.041,0.059,0.082,0.088,0.123C53.224,16.982,53.52,16.779,53.815,16.576z"/><path d="M49.235,17.049c0.168,0.068,0.332,0.151,0.51,0.185c-0.382-0.528-1.095-0.634-1.699-0.681c-0.285-0.022-0.572-0.033-0.858-0.035c-0.157-0.001-0.365-0.026-0.516,0.028c-0.017,0.006-0.252,0.149-0.23,0.154c0.455,0.097,0.638,0.136,1.111,0.237C47.642,17.689,48.768,18.135,49.235,17.049z"/><path d="M53.234,20.26c-1.11-0.397-2.067-0.375-3.032,0.357C51.294,20.812,52.256,20.817,53.234,20.26z"/><path d="M50.676,19.316c0.19,0.003,0.383,0.048,0.569,0.096c0.376,0.095,1.396-0.237,1.545-0.494c-0.749,0.108-1.52,0.219-2.353,0.339c0.027-0.26,0.037-0.366,0.048-0.473C50.258,19.084,50.224,19.309,50.676,19.316z"/><path d="M52.525,20.884c-0.554,0.033-1.128,0.066-1.825,0.107C51.549,21.434,51.928,21.389,52.525,20.884z"/><path d="M19.34,41.924c0.126,0,0.253-0.041,0.36-0.125c0.251-0.199,0.293-0.563,0.094-0.814c-1.253-1.58-1.225-3.854,0.067-5.407c1.168-1.404,3.102-1.916,4.81-1.273c0.3,0.113,0.634-0.039,0.747-0.338c0.112-0.299-0.039-0.634-0.338-0.747c-2.171-0.816-4.625-0.166-6.109,1.617c-1.641,1.973-1.677,4.861-0.084,6.869C19,41.849,19.169,41.924,19.34,41.924z"/><path d="M4.451,94.941H1.235v-6.979c0-0.119-0.107-0.225-0.226-0.225H0.226C0.095,87.737,0,87.843,0,87.962v7.857c0,0.119,0.095,0.226,0.226,0.226h4.226c0.13,0,0.225-0.107,0.225-0.226v-0.653C4.676,95.048,4.582,94.941,4.451,94.941z"/><path d="M12.189,87.749c-0.036-0.071-0.143-0.131-0.202-0.131h-0.119c-0.059,0-0.166,0.06-0.202,0.131l-3.644,7.988c-0.071,0.154,0.023,0.309,0.202,0.309h0.748c0.143,0,0.237-0.095,0.273-0.178c0.237-0.546,0.487-1.08,0.724-1.626h3.881l0.736,1.626c0.047,0.107,0.13,0.178,0.273,0.178h0.748c0.178,0,0.273-0.154,0.202-0.309L12.189,87.749z M10.432,93.22l1.448-3.252h0.06l1.46,3.252H10.432z"/><path d="M26.514,87.737h-0.76c-0.13,0-0.225,0.106-0.225,0.225v5.614h-0.012l-5.151-5.958h-0.297c-0.119,0-0.226,0.095-0.226,0.214v7.988c0,0.119,0.107,0.226,0.226,0.226h0.748c0.13,0,0.226-0.107,0.226-0.226v-5.78h0.012l5.151,6.125h0.309c0.119,0,0.226-0.095,0.226-0.214v-7.988C26.739,87.843,26.632,87.737,26.514,87.737z"/><path d="M34.833,87.737h-2.73c-0.119,0-0.214,0.106-0.214,0.225v7.857c0,0.119,0.095,0.226,0.214,0.226h2.73c2.291,0,4.166-1.863,4.166-4.166C38.999,89.6,37.124,87.737,34.833,87.737z M34.667,94.917H33.1v-6.053h1.567c1.744,0,3.015,1.27,3.015,3.015C37.682,93.635,36.411,94.917,34.667,94.917z"/><path d="M50.024,87.737H49.24c-0.119,0-0.226,0.106-0.226,0.225v7.857c0,0.119,0.107,0.226,0.226,0.226h0.784c0.119,0,0.225-0.107,0.225-0.226v-7.857C50.249,87.843,50.143,87.737,50.024,87.737z"/><path d="M57.584,91.262c-0.985-0.403-1.508-0.819-1.508-1.496c0-0.439,0.344-1.068,1.341-1.068c0.688,0,1.519,0.546,1.603,0.594c0.166,0.106,0.32,0.036,0.415-0.119c0.095-0.143,0.202-0.309,0.297-0.451c0.119-0.178,0.023-0.344-0.071-0.404c-0.119-0.083-1.009-0.7-2.196-0.7c-1.887,0-2.599,1.27-2.599,2.196c0,1.377,0.95,2.006,2.16,2.517c1.175,0.486,1.792,0.938,1.792,1.65c0,0.605-0.522,1.104-1.342,1.104c-0.914,0-1.828-0.76-1.899-0.819c-0.13-0.107-0.297-0.06-0.403,0.095c-0.107,0.154-0.202,0.333-0.309,0.487c-0.119,0.202-0.036,0.285,0.071,0.379c0.19,0.178,1.104,0.938,2.552,0.938c1.543,0,2.647-1.009,2.647-2.243C60.136,92.472,58.96,91.82,57.584,91.262z"/><path d="M74.531,94.941h-3.216v-6.979c0-0.119-0.107-0.225-0.226-0.225h-0.783c-0.13,0-0.226,0.106-0.226,0.225v7.857c0,0.119,0.095,0.226,0.226,0.226h4.225c0.131,0,0.226-0.107,0.226-0.226v-0.653C74.757,95.048,74.662,94.941,74.531,94.941z"/><path d="M79.86,87.737h-0.783c-0.119,0-0.226,0.106-0.226,0.225v7.857c0,0.119,0.107,0.226,0.226,0.226h0.783c0.119,0,0.226-0.107,0.226-0.226v-7.857C80.085,87.843,79.979,87.737,79.86,87.737z"/><path d="M90.209,87.737h-4.748c-0.13,0-0.226,0.106-0.226,0.225v7.857c0,0.119,0.095,0.226,0.226,0.226h0.771c0.119,0,0.226-0.107,0.226-0.226v-3.122h3.169c0.119,0,0.226-0.107,0.226-0.226V91.82c0-0.119-0.107-0.226-0.226-0.226h-3.169v-2.742h3.75c0.131,0,0.226-0.106,0.226-0.225v-0.665C90.435,87.843,90.34,87.737,90.209,87.737z"/><path d="M99.774,88.852c0.131,0,0.226-0.106,0.226-0.225v-0.665c0-0.119-0.095-0.225-0.226-0.225h-4.748c-0.13,0-0.226,0.106-0.226,0.225v7.857c0,0.119,0.095,0.226,0.226,0.226h4.748c0.131,0,0.226-0.107,0.226-0.226v-0.653c0-0.119-0.095-0.225-0.226-0.225h-3.75v-2.552h3.169c0.119,0,0.226-0.095,0.226-0.226v-0.665c0-0.119-0.107-0.226-0.226-0.226h-3.169v-2.421H99.774z"/></svg>