<svg version="1.1" xmlns="http://www.w3.org/2000/svg" viewBox="0 0 100 23.431" fill="#fff"><path d="M10.476,18.867c0.19,0.025,0.374,0.05,0.539,0.05c1.528-0.013,2.659-0.962,3.474-1.788c1.011-1.026,2.247-1.484,3.574-1.327c0.088,0.011,0.17-0.054,0.181-0.143c0.011-0.09-0.053-0.171-0.143-0.182c-1.432-0.171-2.761,0.321-3.846,1.422c-0.279,0.283-0.598,0.581-0.957,0.848c-0.003-0.001-0.006-0.001-0.011-0.001c-0.001,0-0.003,0-0.004,0c-0.407,0-0.773-0.164-1.161-0.338c-0.109-0.049-0.222-0.099-0.336-0.146c2.306-0.379,4.068-2.384,4.068-4.794c0-1.365-0.567-2.601-1.477-3.484c0.1-0.019,0.196-0.063,0.286-0.149c0.168-0.162,0.245-0.336,0.264-0.514c0.058-0.009,0.127-0.003,0.214,0.028c0.118,0.042,0.242,0.155,0.295,0.208c0.008,0.455,0.122,1.183,0.531,2.304c0.44,1.203,0.15,2.701,0.147,2.716c-0.018,0.089,0.04,0.175,0.128,0.192c0.011,0.003,0.022,0.003,0.033,0.003c0.076,0,0.144-0.053,0.159-0.131c0.013-0.064,0.312-1.602-0.161-2.893c-0.748-2.046-0.455-2.671-0.444-2.691c0.006-0.01,0.011-0.021,0.014-0.032c1.326-1.672,3.674-2.403,3.674-2.403C17.3,5.777,16.052,7.25,16.052,7.25c0.344-0.675,1.113-1.565,1.854-2.222c0.375-0.332,1.03-0.753,1.03-0.753c-1.2,0.215-3.179,2.515-3.179,2.515c0.106-0.464,1.95-4.467,1.95-4.467c-1.109,1.437-1.833,2.855-2.294,3.975c-0.075-0.261-0.091-0.545-0.105-0.842C15.299,5.281,15.29,5.1,15.267,4.925c-0.008-0.056-0.015-0.114-0.021-0.172c-0.061-0.496-0.13-1.06-0.586-1.414c-0.437-0.337-1.012-0.246-1.501-0.077c-0.072-0.314-0.356-0.84-0.917-1.71c-0.042-0.064-0.072-0.111-0.085-0.132c-0.188-0.317-0.403-0.592-0.638-0.816C11.101,0.203,10.626,0,10.111,0c-0.65,0-1.317,0.332-1.88,0.935C8.108,1.065,6.742,3.008,6.834,3.556c0.014,0.088,0.062,0.157,0.127,0.191c0.005,0.003,0.294,0.15,0.804,0.295C7.783,4.239,7.853,4.381,7.941,4.48C7.38,4.1,6.748,3.802,6.12,4.078c-0.94,0.414-0.861,1.54-0.804,2.361C5.321,6.511,5.326,6.58,5.33,6.646c0.037,0.609-0.014,1.215-0.156,1.851C5.152,8.591,5.13,8.687,5.107,8.784c-0.166,0.707-0.352,1.495-0.183,2.222c-0.29-0.162-0.569-0.413-0.76-0.697c-0.05-0.075-0.151-0.095-0.227-0.045c-0.075,0.051-0.095,0.152-0.045,0.227c0.298,0.443,0.786,0.821,1.244,0.963c0.428,0.132,0.731,0.41,0.954,0.876c0.011,0.023,0.028,0.041,0.047,0.057c0,0.027-0.002,0.055-0.002,0.083c0,2.364,1.697,4.339,3.937,4.771c-0.115,0.042-0.229,0.088-0.347,0.136c-0.111,0.045-0.225,0.092-0.343,0.135c-2.145,0.796-4.288,0.209-5.513-1.495c0.001-0.003,0.003-0.007,0.005-0.009c0.068-0.12,0.141-0.243,0.206-0.366c0.231-0.438,0.455-0.967,0.354-1.572c-0.047-0.29-0.126-0.565-0.201-0.831c-0.166-0.58-0.323-1.129-0.131-1.742c0.027-0.086-0.021-0.178-0.107-0.204c-0.086-0.027-0.178,0.021-0.204,0.107c-0.222,0.706-0.044,1.327,0.128,1.929c0.074,0.257,0.149,0.522,0.194,0.794c0.083,0.51-0.116,0.977-0.322,1.366c-0.057,0.106-0.118,0.215-0.179,0.319c-0.023,0.004-0.047,0.012-0.066,0.025c-0.066,0.044-0.09,0.127-0.062,0.197c-0.139,0.245-0.271,0.502-0.354,0.779c-0.083,0.276-0.104,0.562-0.093,0.846l-1.162,0.182c-0.022,0.003-0.042,0.015-0.056,0.033c-0.013,0.018-0.019,0.04-0.015,0.062l0.076,0.488c0.003,0.022,0.016,0.042,0.033,0.055c0.015,0.011,0.032,0.017,0.05,0.017c0.005,0,0.009-0.001,0.013-0.001l1.136-0.178c0.028,0.161,0.061,0.319,0.092,0.472c0.018,0.087,0.035,0.173,0.051,0.259c0.016,0.078,0.084,0.132,0.161,0.132c0.01,0,0.021-0.001,0.031-0.003c0.088-0.018,0.146-0.103,0.129-0.191c-0.017-0.086-0.034-0.174-0.053-0.261c-0.03-0.151-0.062-0.305-0.088-0.457l0.05-0.009c0.047-0.006,0.077-0.05,0.071-0.096l-0.077-0.488c-0.003-0.021-0.015-0.042-0.033-0.055c-0.018-0.014-0.04-0.019-0.062-0.016l-0.022,0.004c-0.007-0.239,0.014-0.475,0.081-0.701c0.061-0.199,0.149-0.388,0.251-0.574c0.925,1.21,2.297,1.861,3.802,1.861c0.65,0,1.326-0.121,2-0.372c0.121-0.045,0.237-0.093,0.353-0.139c0.52-0.211,0.967-0.393,1.522-0.219c0.208,0.064,0.406,0.153,0.617,0.248c0.284,0.127,0.576,0.257,0.892,0.321c-0.541,0.327-1.161,0.557-1.869,0.562c-0.146-0.001-0.312-0.022-0.491-0.048c-0.407-0.057-0.868-0.12-1.227,0.089c-0.457,0.269-0.408,0.784-0.373,1.16c0.006,0.067,0.012,0.133,0.016,0.195c0.03,0.513-0.144,0.877-0.432,1.297c-0.525,0.766-0.541,1.447-0.046,2.083c0.032,0.041,0.08,0.063,0.129,0.063c0.035,0,0.071-0.012,0.101-0.034c0.071-0.056,0.084-0.159,0.029-0.229c-0.402-0.517-0.385-1.056,0.056-1.698c0.318-0.464,0.523-0.896,0.489-1.5c-0.003-0.067-0.01-0.137-0.017-0.208c-0.039-0.413-0.045-0.695,0.213-0.847C9.72,18.762,10.104,18.814,10.476,18.867z M11.293,0.84c0.214,0.204,0.409,0.455,0.582,0.746c0.015,0.023,0.047,0.073,0.091,0.143c0.751,1.164,0.877,1.534,0.886,1.651c-0.012,0.006-0.023,0.011-0.035,0.015c-0.528,0.215-1.065,0.371-1.606,0.471l-0.027-0.021l-0.224-0.434l-0.437-0.641L10.49,2.729l-0.414,0.022L9.647,2.242L9.257,1.797l-0.04-0.501l0.006-0.192L9.104,0.952L9.026,0.991L8.889,0.779c0.394-0.294,0.814-0.452,1.223-0.452C10.54,0.327,10.938,0.499,11.293,0.84z M9.822,4.321L9.822,4.321c0.75,0,1.497-0.108,2.233-0.319c-0.052,0.156-0.149,0.179-0.161,0.181l-0.084,0.01L11.77,4.266c-0.174,0.313-0.392,0.727-0.545,1.163c-0.138,0.387-0.415,0.638-0.783,0.707c-0.417,0.077-0.887-0.09-1.168-0.417C9.192,5.624,8.734,4.881,8.465,4.434L8.423,4.367L8.348,4.355C8.312,4.351,8.172,4.317,8.113,4.132C8.57,4.236,9.149,4.321,9.822,4.321z M8.222,4.662C8.228,4.671,8.234,4.683,8.24,4.693C8.219,4.677,8.196,4.661,8.175,4.645C8.19,4.651,8.206,4.657,8.222,4.662z M5.315,11.171c-0.267-0.708-0.067-1.56,0.109-2.311c0.023-0.1,0.046-0.197,0.067-0.292c0.149-0.666,0.203-1.302,0.164-1.942C5.652,6.559,5.647,6.489,5.643,6.418c-0.054-0.767-0.121-1.72,0.609-2.041c0.649-0.286,1.367,0.255,1.999,0.732c0.156,0.118,0.304,0.229,0.444,0.324c0.146,0.233,0.279,0.438,0.33,0.498c0.297,0.345,0.76,0.549,1.213,0.549c0.088,0,0.177-0.008,0.264-0.024c0.487-0.091,0.854-0.417,1.03-0.919c0.137-0.385,0.321-0.744,0.488-1.051c0.155-0.058,0.353-0.226,0.387-0.594c0.161-0.054,0.321-0.112,0.481-0.176c0.01-0.002,0.018-0.005,0.026-0.009c0.017-0.007,0.033-0.015,0.051-0.021c0.019-0.008,0.038-0.015,0.057-0.022c0.004-0.002,0.008-0.005,0.012-0.006c0.452-0.187,1.043-0.356,1.424-0.061c0.35,0.271,0.407,0.741,0.463,1.195c0.007,0.06,0.015,0.118,0.021,0.176c0.021,0.16,0.03,0.328,0.039,0.504c0.021,0.427,0.046,0.867,0.26,1.261c-0.115,0.305-0.21,0.581-0.285,0.819l-0.214,0.033c-0.083-0.162-0.184-0.316-0.273-0.457c-0.14-0.217-0.285-0.44-0.292-0.571c-0.005-0.091-0.085-0.159-0.172-0.155c-0.09,0.005-0.159,0.082-0.154,0.172c0.012,0.218,0.165,0.456,0.344,0.732c0.355,0.551,0.582,0.967,0.243,1.293c-0.13,0.123-0.326,0.064-0.603-0.071c-0.001,0-0.001,0-0.001,0c-0.799-0.577-1.779-0.919-2.838-0.919c-1.73,0-3.251,0.909-4.111,2.274c-0.266,0.124-0.439,0.134-0.592,0.035C5.87,9.645,6.01,9.147,6.236,8.524C6.259,8.46,6.282,8.398,6.303,8.34c0.16-0.469,0.252-0.97,0.282-1.532C6.589,6.717,6.521,6.641,6.43,6.636C6.34,6.632,6.264,6.7,6.259,6.79C6.23,7.323,6.144,7.795,5.993,8.233c-0.02,0.057-0.042,0.117-0.064,0.18c-0.194,0.534-0.487,1.342,0.187,1.779c0.135,0.088,0.271,0.121,0.403,0.121c0.044,0,0.087-0.004,0.129-0.011c-0.235,0.472-0.396,0.987-0.468,1.53C5.954,11.515,5.669,11.297,5.315,11.171z M6.463,12.469c0-1.823,1.084-3.398,2.641-4.117l-0.229,0.36l0.113,0.226L8.611,9.276l-0.075,1.017l0.227,0.677l0.149-0.414l0.302,0.829l0.739,0.398l0.47,0.181l0.302,0.489l0.446,0.249l-0.221,0.654l-0.188,0.227l-0.004,0.55l0.72,0.654l-0.084,0.983l-0.335,0.848l0.147,0.161l0.418-0.425l0.752-0.489l0.565-0.377l0.549-0.283l0.518-0.543l0.439-0.491l-0.146-0.553l-0.644-0.313l-0.188-0.451l-0.903-0.339l-0.646-0.258l-0.175-0.058l-0.384,0.275l-0.523-0.123l0.014-0.412l-0.284-0.325l-0.158-0.125l-0.029-0.368l-0.413,0.226l-0.251-0.301l0.289-0.527l0.715-0.038l0.249,0.081l0.052,0.333l0.132,0.002l-0.017-0.394l0.435-0.408l0.054-0.291l0.655-0.298l0.435-0.171l-0.075-0.134l-0.158-0.21L11.92,8.458l-0.392,0.024l-0.056,0.38l-0.414-0.188l-0.115-0.3l0.401-0.167l0.392,0.052l-0.112-0.15L11.061,8.04L10.76,8.107l-0.622-0.089c0.277-0.053,0.564-0.082,0.858-0.082c2.499,0,4.531,2.033,4.531,4.532c0,2.5-2.032,4.532-4.531,4.532S6.463,14.969,6.463,12.469z"/><path d="M20.7,15.938c-0.015-0.088-0.099-0.148-0.188-0.133c-0.089,0.016-0.148,0.101-0.133,0.189c0.279,1.614-1.888,2.2-3.322,2.587c-0.183,0.05-0.356,0.097-0.506,0.142l-0.537,0.158c-1.104,0.326-2.243,0.662-3.343,1.066c-0.1,0.036-0.209,0.074-0.323,0.113c-0.736,0.256-1.652,0.572-2.05,1.208c-0.048,0.076-0.024,0.177,0.052,0.225c0.027,0.017,0.058,0.024,0.087,0.024c0.055,0,0.107-0.026,0.139-0.076c0.336-0.537,1.228-0.846,1.879-1.072c0.117-0.04,0.228-0.078,0.329-0.115c1.09-0.4,2.225-0.735,3.322-1.06l0.537-0.159c0.146-0.043,0.318-0.089,0.5-0.139C18.597,18.505,21.03,17.847,20.7,15.938z"/><path d="M10.328,19.572c0-0.091-0.073-0.163-0.163-0.163c-0.227,0-0.479,0.182-0.479,0.425c0,0.091,0.073,0.164,0.164,0.164c0.09,0,0.163-0.073,0.163-0.164c0-0.033,0.078-0.098,0.152-0.098C10.255,19.736,10.328,19.663,10.328,19.572z"/><path d="M3.631,19.786c-0.088-0.018-0.175,0.039-0.193,0.127c-0.05,0.238-0.264,0.305-0.611,0.387c-0.061,0.015-0.119,0.028-0.175,0.043c-0.507,0.14-0.805,0.428-1.097,0.816c-0.398,0.531-0.812,0.687-1.337,0.502c-0.085-0.029-0.179,0.016-0.208,0.101c-0.03,0.085,0.015,0.179,0.1,0.208c0.178,0.062,0.347,0.094,0.51,0.094c0.446,0,0.841-0.234,1.196-0.708c0.26-0.345,0.505-0.583,0.923-0.697c0.052-0.014,0.106-0.027,0.162-0.04c0.321-0.076,0.761-0.179,0.857-0.639C3.775,19.892,3.719,19.805,3.631,19.786z"/><path d="M10.931,4.674c-0.001,0.017-0.002,0.032-0.003,0.048c0.079,0.03,0.173,0.099,0.235,0.078c0.066-0.022,0.105-0.131,0.157-0.2c0.026-0.035,0.052-0.069,0.083-0.099c0.014-0.015,0.039-0.018,0.06-0.025c0.022-0.009,0.046-0.017,0.068-0.025c-0.012-0.011-0.022-0.022-0.033-0.034c-0.311,0.067-0.632,0.115-0.841,0.395c0.008,0.012,0.016,0.022,0.024,0.034C10.765,4.788,10.848,4.73,10.931,4.674z"/><path d="M9.64,4.807c0.048,0.02,0.094,0.043,0.144,0.052C9.676,4.71,9.475,4.68,9.305,4.667c-0.081-0.006-0.162-0.01-0.242-0.01c-0.044,0-0.103-0.008-0.146,0.008c-0.004,0.002-0.07,0.042-0.064,0.043c0.128,0.027,0.18,0.038,0.313,0.066C9.19,4.987,9.509,5.112,9.64,4.807z"/><path d="M10.768,5.712C10.454,5.6,10.185,5.606,9.913,5.812C10.221,5.867,10.492,5.869,10.768,5.712z"/><path d="M10.046,5.445c0.054,0.002,0.108,0.014,0.161,0.027c0.106,0.027,0.394-0.066,0.436-0.14c-0.212,0.031-0.429,0.062-0.663,0.096c0.007-0.073,0.01-0.103,0.014-0.133C9.928,5.381,9.919,5.444,10.046,5.445z"/><path d="M10.567,5.888c-0.156,0.01-0.318,0.019-0.515,0.03C10.292,6.043,10.399,6.03,10.567,5.888z"/><path d="M1.212,11.819c0.036,0,0.071-0.012,0.102-0.035c0.071-0.056,0.083-0.158,0.026-0.229c-0.354-0.445-0.345-1.087,0.02-1.524c0.329-0.396,0.874-0.54,1.355-0.359C2.8,9.703,2.894,9.66,2.926,9.576c0.031-0.085-0.012-0.179-0.096-0.21c-0.612-0.23-1.304-0.048-1.722,0.455c-0.464,0.556-0.474,1.37-0.024,1.937C1.116,11.798,1.164,11.819,1.212,11.819z"/><path d="M28.268,13.1h-2.414V7.86c0-0.089-0.08-0.169-0.17-0.169h-0.588c-0.098,0-0.169,0.08-0.169,0.169v5.898c0,0.089,0.071,0.17,0.169,0.17h3.172c0.099,0,0.17-0.081,0.17-0.17V13.27C28.438,13.181,28.366,13.1,28.268,13.1z"/><path d="M34.077,7.7c-0.026-0.054-0.106-0.098-0.15-0.098h-0.09c-0.044,0-0.125,0.044-0.151,0.098l-2.735,5.997c-0.054,0.115,0.018,0.231,0.151,0.231h0.562c0.106,0,0.178-0.072,0.204-0.134c0.179-0.41,0.366-0.811,0.544-1.221h2.913l0.553,1.221c0.036,0.08,0.098,0.134,0.205,0.134h0.562c0.134,0,0.205-0.116,0.151-0.231L34.077,7.7z M32.759,11.808l1.087-2.441h0.045l1.096,2.441H32.759z"/><path d="M44.831,7.691h-0.57c-0.098,0-0.168,0.08-0.168,0.169v4.215h-0.01l-3.867-4.473h-0.223c-0.089,0-0.17,0.07-0.17,0.159v5.997c0,0.089,0.081,0.17,0.17,0.17h0.562c0.098,0,0.169-0.081,0.169-0.17V9.42h0.01l3.866,4.598h0.231c0.089,0,0.17-0.071,0.17-0.161V7.86C45.001,7.771,44.92,7.691,44.831,7.691z"/><path d="M51.077,7.691h-2.049c-0.09,0-0.161,0.08-0.161,0.169v5.898c0,0.089,0.071,0.17,0.161,0.17h2.049c1.72,0,3.128-1.399,3.128-3.128C54.205,9.09,52.797,7.691,51.077,7.691z M50.952,13.082h-1.176V8.538h1.176c1.31,0,2.264,0.953,2.264,2.263C53.216,12.119,52.262,13.082,50.952,13.082z"/><path d="M62.481,7.691h-0.588c-0.089,0-0.17,0.08-0.17,0.169v5.898c0,0.089,0.081,0.17,0.17,0.17h0.588c0.089,0,0.17-0.081,0.17-0.17V7.86C62.651,7.771,62.57,7.691,62.481,7.691z"/><path d="M68.156,10.338c-0.738-0.304-1.131-0.615-1.131-1.123c0-0.33,0.259-0.802,1.007-0.802c0.517,0,1.141,0.41,1.203,0.445c0.125,0.08,0.24,0.026,0.312-0.089c0.071-0.107,0.151-0.231,0.223-0.339c0.089-0.134,0.018-0.258-0.054-0.303c-0.089-0.062-0.757-0.525-1.648-0.525c-1.417,0-1.951,0.953-1.951,1.648c0,1.033,0.713,1.506,1.622,1.889c0.882,0.365,1.346,0.704,1.346,1.238c0,0.455-0.393,0.829-1.008,0.829c-0.686,0-1.372-0.57-1.426-0.615c-0.098-0.08-0.222-0.044-0.302,0.071c-0.081,0.116-0.151,0.249-0.232,0.366c-0.089,0.151-0.027,0.213,0.054,0.284c0.143,0.134,0.829,0.704,1.916,0.704c1.157,0,1.987-0.758,1.987-1.685C70.073,11.246,69.19,10.757,68.156,10.338z"/><path d="M80.88,13.1h-2.415V7.86c0-0.089-0.079-0.169-0.169-0.169h-0.588c-0.098,0-0.169,0.08-0.169,0.169v5.898c0,0.089,0.071,0.17,0.169,0.17h3.172c0.099,0,0.17-0.081,0.17-0.17V13.27C81.05,13.181,80.979,13.1,80.88,13.1z"/><path d="M84.881,7.691h-0.589c-0.089,0-0.169,0.08-0.169,0.169v5.898c0,0.089,0.08,0.17,0.169,0.17h0.589c0.089,0,0.168-0.081,0.168-0.17V7.86C85.049,7.771,84.97,7.691,84.881,7.691z"/><path d="M92.65,7.691h-3.564c-0.099,0-0.169,0.08-0.169,0.169v5.898c0,0.089,0.07,0.17,0.169,0.17h0.579c0.089,0,0.169-0.081,0.169-0.17v-2.343h2.38c0.089,0,0.169-0.08,0.169-0.17v-0.489c0-0.089-0.08-0.17-0.169-0.17h-2.38V8.528h2.816c0.098,0,0.169-0.079,0.169-0.169V7.86C92.819,7.771,92.748,7.691,92.65,7.691z"/><path d="M99.831,8.528c0.099,0,0.169-0.079,0.169-0.169V7.86c0-0.089-0.07-0.169-0.169-0.169h-3.564c-0.098,0-0.169,0.08-0.169,0.169v5.898c0,0.089,0.071,0.17,0.169,0.17h3.564c0.099,0,0.169-0.081,0.169-0.17V13.27c0-0.089-0.07-0.17-0.169-0.17h-2.816v-1.915h2.38c0.089,0,0.169-0.072,0.169-0.17v-0.499c0-0.089-0.08-0.169-0.169-0.169h-2.38V8.528H99.831z"/></svg>