<svg version="1.1" xmlns="http://www.w3.org/2000/svg" viewBox="40.027 0 50 48.083" fill="#333"><path d="M66.126,33.46c0.339,0.047,0.665,0.089,0.958,0.089c2.71-0.021,4.715-1.706,6.159-3.171c1.793-1.82,3.986-2.632,6.339-2.353 c0.157,0.02,0.303-0.094,0.322-0.253c0.02-0.159-0.094-0.303-0.253-0.322c-2.539-0.304-4.896,0.57-6.82,2.522 c-0.495,0.502-1.06,1.031-1.697,1.503c-0.006,0-0.012-0.002-0.019-0.002c-0.003,0-0.006,0-0.009,0c-0.721,0-1.371-0.292-2.058-0.599 c-0.195-0.087-0.394-0.176-0.596-0.259c4.087-0.672,7.215-4.228,7.215-8.502c0-2.422-1.006-4.612-2.62-6.179 c0.176-0.034,0.349-0.114,0.507-0.266c0.298-0.287,0.436-0.595,0.469-0.911c0.102-0.014,0.226-0.004,0.378,0.05 c0.21,0.075,0.431,0.276,0.524,0.368c0.012,0.807,0.214,2.097,0.942,4.087c0.781,2.133,0.267,4.791,0.261,4.817 c-0.031,0.156,0.071,0.31,0.228,0.34c0.02,0.004,0.039,0.005,0.057,0.005c0.135,0,0.256-0.095,0.283-0.233 c0.023-0.115,0.552-2.841-0.285-5.129c-1.327-3.629-0.808-4.736-0.79-4.772c0.011-0.019,0.019-0.039,0.025-0.059 c2.352-2.966,6.515-4.261,6.515-4.261c-3.934,0.275-6.147,2.886-6.147,2.886c0.61-1.196,1.976-2.775,3.288-3.939 c0.664-0.589,1.828-1.335,1.828-1.335c-2.127,0.381-5.639,4.459-5.639,4.459c0.19-0.822,3.46-7.922,3.46-7.922 c-1.968,2.546-3.252,5.063-4.068,7.048c-0.134-0.46-0.162-0.965-0.188-1.492c-0.016-0.311-0.031-0.632-0.073-0.941 c-0.014-0.101-0.026-0.202-0.039-0.305c-0.107-0.882-0.229-1.881-1.04-2.509c-0.772-0.599-1.794-0.436-2.662-0.136 c-0.127-0.558-0.632-1.49-1.627-3.033c-0.074-0.114-0.126-0.196-0.149-0.234c-0.334-0.562-0.714-1.049-1.131-1.447 C67.235,0.36,66.395,0,65.481,0c-1.153,0-2.337,0.588-3.335,1.656c-0.217,0.232-2.641,3.678-2.479,4.65 c0.026,0.155,0.11,0.278,0.226,0.339c0.009,0.005,0.521,0.268,1.425,0.524c0.032,0.349,0.156,0.6,0.313,0.776 c-0.996-0.675-2.117-1.204-3.23-0.714c-1.668,0.734-1.528,2.731-1.426,4.189c0.009,0.125,0.017,0.248,0.024,0.365 c0.066,1.082-0.025,2.155-0.279,3.282c-0.037,0.167-0.077,0.337-0.118,0.512c-0.294,1.252-0.622,2.649-0.323,3.938 c-0.514-0.286-1.008-0.732-1.347-1.236c-0.089-0.133-0.269-0.168-0.402-0.079c-0.133,0.089-0.168,0.269-0.079,0.402 c0.528,0.787,1.394,1.456,2.206,1.707c0.759,0.234,1.297,0.728,1.693,1.555c0.02,0.042,0.049,0.073,0.083,0.1 c0,0.05-0.004,0.099-0.004,0.148c0,4.193,3.011,7.694,6.982,8.46c-0.205,0.075-0.409,0.158-0.615,0.241 c-0.198,0.08-0.399,0.162-0.607,0.24c-3.804,1.411-7.607,0.369-9.779-2.652c0.003-0.006,0.007-0.011,0.01-0.018 c0.122-0.211,0.249-0.43,0.364-0.649c0.411-0.776,0.807-1.714,0.631-2.788c-0.084-0.513-0.224-1.001-0.358-1.473 c-0.294-1.03-0.573-2.002-0.232-3.09c0.048-0.152-0.037-0.315-0.19-0.363c-0.152-0.047-0.315,0.038-0.363,0.19 c-0.392,1.253-0.077,2.356,0.228,3.422c0.13,0.456,0.265,0.927,0.344,1.408c0.148,0.903-0.206,1.732-0.571,2.423 c-0.1,0.188-0.209,0.38-0.317,0.567c-0.041,0.006-0.082,0.02-0.118,0.044c-0.117,0.077-0.159,0.225-0.108,0.35 c-0.246,0.436-0.48,0.889-0.628,1.381c-0.147,0.49-0.187,0.996-0.166,1.5l-2.062,0.322c-0.039,0.006-0.074,0.028-0.098,0.06 c-0.023,0.032-0.033,0.072-0.027,0.111l0.135,0.866c0.006,0.04,0.028,0.074,0.06,0.098c0.025,0.019,0.057,0.029,0.088,0.029 c0.008,0,0.016,0,0.023-0.002l2.014-0.314c0.049,0.286,0.106,0.565,0.162,0.836c0.031,0.154,0.062,0.307,0.091,0.458 c0.027,0.139,0.148,0.234,0.284,0.234c0.019,0,0.037-0.001,0.055-0.005c0.157-0.03,0.26-0.183,0.229-0.339 c-0.029-0.153-0.061-0.307-0.092-0.463c-0.055-0.268-0.11-0.54-0.157-0.81l0.089-0.014c0.082-0.013,0.137-0.089,0.125-0.17 l-0.135-0.866c-0.006-0.039-0.027-0.075-0.059-0.098c-0.032-0.023-0.072-0.032-0.111-0.027l-0.04,0.006 c-0.012-0.425,0.024-0.842,0.145-1.243c0.106-0.353,0.264-0.686,0.443-1.019c1.642,2.146,4.074,3.302,6.744,3.302 c1.154,0,2.352-0.215,3.548-0.66c0.214-0.08,0.421-0.164,0.624-0.246c0.921-0.374,1.715-0.696,2.702-0.389 c0.368,0.115,0.72,0.272,1.093,0.439c0.504,0.227,1.022,0.456,1.582,0.572c-0.959,0.578-2.059,0.985-3.314,0.996 c-0.26-0.001-0.556-0.04-0.873-0.083c-0.722-0.101-1.539-0.214-2.175,0.159c-0.811,0.476-0.725,1.389-0.662,2.056 c0.011,0.119,0.022,0.235,0.029,0.346c0.051,0.911-0.255,1.555-0.767,2.301c-0.932,1.357-0.958,2.565-0.081,3.694 c0.057,0.074,0.143,0.112,0.229,0.112c0.062,0,0.125-0.02,0.178-0.061c0.126-0.098,0.149-0.281,0.051-0.407 c-0.712-0.916-0.681-1.873,0.101-3.01c0.564-0.823,0.928-1.59,0.868-2.662c-0.007-0.118-0.019-0.242-0.03-0.368 c-0.069-0.732-0.081-1.232,0.378-1.501C64.787,33.274,65.467,33.369,66.126,33.46z M67.577,1.489 c0.379,0.362,0.726,0.808,1.033,1.324c0.024,0.042,0.082,0.129,0.161,0.252c1.331,2.064,1.555,2.721,1.57,2.929 c-0.021,0.009-0.042,0.018-0.062,0.026c-0.938,0.381-1.89,0.658-2.85,0.834L67.38,6.819l-0.396-0.77L66.21,4.912l-0.057-0.073 l-0.736,0.04l-0.759-0.903l-0.694-0.79l-0.07-0.889l0.01-0.34l-0.21-0.269l-0.136,0.069l-0.244-0.375 C64.01,0.86,64.757,0.58,65.481,0.58C66.24,0.58,66.946,0.885,67.577,1.489z M64.968,7.665C64.968,7.665,64.968,7.665,64.968,7.665 c1.33,0,2.655-0.193,3.961-0.567c-0.091,0.277-0.265,0.318-0.284,0.322l-0.15,0.016l-0.073,0.132 c-0.307,0.554-0.693,1.288-0.967,2.062c-0.242,0.686-0.735,1.13-1.388,1.252c-0.74,0.139-1.573-0.158-2.072-0.739 c-0.143-0.167-0.955-1.487-1.433-2.279l-0.076-0.116l-0.134-0.021c-0.061-0.01-0.311-0.069-0.416-0.397 C62.748,7.513,63.774,7.665,64.968,7.665z M62.129,8.268c0.01,0.017,0.022,0.038,0.034,0.057c-0.039-0.029-0.079-0.058-0.118-0.087 C62.074,8.249,62.102,8.259,62.129,8.268z M56.976,19.811c-0.473-1.255-0.12-2.765,0.193-4.099c0.041-0.175,0.082-0.348,0.12-0.517 c0.265-1.181,0.36-2.307,0.291-3.444c-0.007-0.119-0.016-0.243-0.024-0.37c-0.095-1.358-0.214-3.049,1.081-3.619 c1.153-0.507,2.425,0.453,3.546,1.301c0.276,0.208,0.538,0.405,0.787,0.573c0.26,0.415,0.496,0.779,0.586,0.884 c0.526,0.612,1.347,0.974,2.149,0.974c0.158,0,0.315-0.014,0.469-0.042c0.865-0.162,1.514-0.74,1.828-1.629 c0.241-0.683,0.569-1.321,0.867-1.865c0.275-0.101,0.623-0.399,0.685-1.052c0.286-0.095,0.57-0.199,0.853-0.312 c0.016-0.004,0.032-0.008,0.048-0.015c0.029-0.013,0.06-0.026,0.089-0.038c0.033-0.014,0.067-0.025,0.101-0.04 c0.007-0.003,0.013-0.008,0.02-0.011c0.802-0.33,1.849-0.632,2.526-0.107c0.619,0.479,0.721,1.313,0.819,2.121 c0.013,0.105,0.025,0.209,0.04,0.312c0.038,0.286,0.053,0.581,0.068,0.894c0.038,0.757,0.081,1.539,0.462,2.236 c-0.205,0.541-0.372,1.031-0.506,1.454l-0.379,0.06c-0.149-0.288-0.326-0.563-0.487-0.812c-0.248-0.384-0.505-0.782-0.517-1.015 c-0.008-0.16-0.151-0.281-0.305-0.274c-0.16,0.008-0.282,0.145-0.274,0.305c0.021,0.386,0.293,0.809,0.609,1.298 c0.632,0.979,1.033,1.716,0.432,2.293c-0.229,0.22-0.579,0.116-1.068-0.125c0,0-0.001,0-0.002,0 c-1.417-1.023-3.156-1.629-5.033-1.629c-3.068,0-5.765,1.612-7.292,4.033c-0.469,0.219-0.777,0.238-1.048,0.062 c-0.75-0.487-0.502-1.369-0.102-2.473c0.042-0.115,0.082-0.225,0.118-0.329c0.284-0.83,0.448-1.719,0.501-2.717 c0.008-0.16-0.115-0.297-0.274-0.305c-0.161-0.006-0.296,0.114-0.305,0.274c-0.051,0.944-0.204,1.782-0.471,2.56 c-0.034,0.101-0.073,0.208-0.114,0.318c-0.345,0.948-0.865,2.38,0.331,3.157c0.239,0.155,0.48,0.214,0.715,0.214 c0.078,0,0.154-0.007,0.229-0.019c-0.418,0.836-0.704,1.75-0.831,2.713C58.109,20.421,57.602,20.035,56.976,19.811z M59.011,22.114 c0-3.235,1.922-6.028,4.683-7.302l-0.406,0.638l0.2,0.4l-0.668,0.601l-0.133,1.803l0.401,1.202l0.267-0.734l0.534,1.469l1.31,0.706 l0.835,0.321l0.535,0.868l0.792,0.443l-0.392,1.16l-0.334,0.4l-0.008,0.977l1.277,1.161l-0.15,1.743l-0.594,1.504l0.262,0.285 l0.739-0.752l1.336-0.868L70.5,27.47l0.973-0.504l0.918-0.962l0.779-0.872l-0.261-0.98l-1.142-0.556l-0.333-0.802l-1.604-0.601 l-1.142-0.456l-0.311-0.104l-0.681,0.489l-0.928-0.219l0.024-0.729l-0.503-0.577l-0.281-0.222l-0.05-0.652l-0.734,0.4l-0.445-0.533 l0.512-0.936l1.269-0.067l0.441,0.144l0.093,0.59l0.233,0.003l-0.03-0.697l0.771-0.726l0.095-0.516l1.164-0.528l0.771-0.303 l-0.133-0.237l-0.281-0.371L68.69,15l-0.697,0.044l-0.097,0.672l-0.735-0.333l-0.204-0.531l0.711-0.296l0.695,0.093l-0.2-0.267 l-0.999-0.122l-0.534,0.119l-1.105-0.156c0.494-0.095,1.002-0.146,1.523-0.146c4.433,0,8.039,3.606,8.039,8.038 c0,4.433-3.606,8.039-8.039,8.039C62.617,30.152,59.011,26.546,59.011,22.114z"/><path d="M84.262,28.269c-0.027-0.158-0.176-0.264-0.335-0.236c-0.157,0.027-0.263,0.177-0.236,0.334 c0.496,2.864-3.348,3.902-5.891,4.589c-0.325,0.088-0.633,0.171-0.898,0.25l-0.953,0.282c-1.956,0.578-3.979,1.175-5.928,1.891 c-0.177,0.065-0.37,0.132-0.573,0.202c-1.305,0.452-2.931,1.015-3.635,2.141c-0.084,0.135-0.043,0.314,0.092,0.399 c0.048,0.029,0.101,0.044,0.153,0.044c0.097,0,0.191-0.048,0.246-0.136c0.596-0.953,2.178-1.5,3.333-1.9 c0.207-0.071,0.403-0.14,0.583-0.206c1.932-0.709,3.946-1.303,5.893-1.878l0.954-0.282c0.259-0.077,0.563-0.159,0.885-0.246 C80.53,32.819,84.848,31.653,84.262,28.269z"/><path d="M65.866,34.712c0-0.16-0.129-0.29-0.29-0.29c-0.401,0-0.85,0.323-0.85,0.755c0,0.16,0.13,0.29,0.29,0.29 c0.16,0,0.29-0.129,0.29-0.29c0-0.062,0.139-0.176,0.271-0.176C65.736,35.002,65.866,34.873,65.866,34.712z"/><path d="M53.987,35.092c-0.156-0.032-0.31,0.068-0.343,0.225c-0.088,0.422-0.469,0.541-1.084,0.686 c-0.107,0.025-0.211,0.05-0.309,0.077c-0.898,0.247-1.428,0.757-1.947,1.448c-0.708,0.942-1.439,1.217-2.371,0.891 c-0.152-0.053-0.317,0.026-0.369,0.178c-0.053,0.151,0.027,0.316,0.177,0.369c0.314,0.11,0.615,0.165,0.903,0.165 c0.792,0,1.492-0.416,2.123-1.254c0.46-0.612,0.894-1.034,1.636-1.237c0.091-0.025,0.188-0.048,0.288-0.072 c0.569-0.134,1.35-0.317,1.52-1.131C54.245,35.278,54.144,35.125,53.987,35.092z"/><path d="M66.935,8.288c-0.002,0.029-0.005,0.058-0.007,0.086c0.142,0.052,0.306,0.173,0.417,0.136 c0.119-0.04,0.187-0.231,0.279-0.354c0.045-0.062,0.092-0.123,0.146-0.177c0.025-0.025,0.07-0.03,0.106-0.043 c0.04-0.016,0.08-0.031,0.12-0.045c-0.02-0.021-0.039-0.041-0.059-0.062c-0.55,0.122-1.119,0.204-1.492,0.7 c0.015,0.021,0.03,0.041,0.044,0.062C66.64,8.491,66.788,8.39,66.935,8.288z"/><path d="M64.645,8.524C64.729,8.559,64.811,8.6,64.9,8.617c-0.191-0.264-0.547-0.317-0.85-0.341 c-0.143-0.011-0.286-0.017-0.429-0.018c-0.078,0-0.182-0.013-0.258,0.014c-0.008,0.003-0.126,0.075-0.115,0.077 c0.228,0.048,0.319,0.068,0.555,0.118C63.848,8.845,64.411,9.067,64.645,8.524z"/><path d="M66.645,10.13c-0.555-0.198-1.034-0.188-1.516,0.179C65.674,10.406,66.155,10.409,66.645,10.13z"/><path d="M65.365,9.658c0.095,0.001,0.191,0.024,0.285,0.048c0.188,0.047,0.698-0.119,0.772-0.247 c-0.375,0.054-0.76,0.109-1.177,0.169c0.014-0.13,0.019-0.183,0.024-0.236C65.156,9.542,65.139,9.654,65.365,9.658z"/><path d="M66.29,10.442c-0.277,0.017-0.564,0.033-0.913,0.054C65.802,10.717,65.991,10.694,66.29,10.442z"/><path d="M49.697,20.962c0.063,0,0.126-0.021,0.18-0.062c0.125-0.1,0.146-0.281,0.047-0.407c-0.626-0.79-0.612-1.927,0.034-2.704 c0.584-0.702,1.551-0.958,2.405-0.637c0.15,0.057,0.317-0.02,0.374-0.169c0.056-0.149-0.02-0.317-0.169-0.374 c-1.085-0.408-2.312-0.083-3.055,0.809c-0.82,0.986-0.838,2.431-0.042,3.435C49.527,20.924,49.612,20.962,49.697,20.962z"/><path d="M42.253,47.47h-1.608v-3.489c0-0.06-0.054-0.112-0.113-0.112H40.14c-0.065,0-0.113,0.053-0.113,0.112v3.929 c0,0.06,0.047,0.113,0.113,0.113h2.113c0.065,0,0.112-0.053,0.112-0.113v-0.327C42.365,47.524,42.318,47.47,42.253,47.47z"/><path d="M46.122,43.875c-0.018-0.036-0.072-0.065-0.101-0.065h-0.06c-0.03,0-0.083,0.03-0.101,0.065l-1.822,3.994 c-0.036,0.077,0.011,0.154,0.101,0.154h0.374c0.072,0,0.119-0.047,0.137-0.089c0.119-0.273,0.244-0.54,0.362-0.813h1.94l0.368,0.813 c0.023,0.053,0.065,0.089,0.137,0.089h0.374c0.089,0,0.136-0.077,0.101-0.154L46.122,43.875z M45.243,46.61l0.724-1.626h0.03 l0.73,1.626H45.243z"/><path d="M53.284,43.869h-0.38c-0.065,0-0.112,0.053-0.112,0.112v2.807h-0.006l-2.575-2.979h-0.148c-0.06,0-0.113,0.047-0.113,0.107 v3.994c0,0.059,0.054,0.113,0.113,0.113h0.374c0.065,0,0.113-0.054,0.113-0.113v-2.89h0.006l2.576,3.062h0.154 c0.06,0,0.113-0.047,0.113-0.107v-3.994C53.397,43.921,53.343,43.869,53.284,43.869z"/><path d="M57.444,43.869h-1.365c-0.059,0-0.107,0.053-0.107,0.112v3.929c0,0.06,0.048,0.113,0.107,0.113h1.365 c1.146,0,2.083-0.932,2.083-2.083C59.527,44.8,58.589,43.869,57.444,43.869z M57.361,47.458h-0.784v-3.026h0.784 c0.872,0,1.507,0.635,1.507,1.507C58.868,46.817,58.233,47.458,57.361,47.458z"/><path d="M65.04,43.869h-0.392c-0.06,0-0.113,0.053-0.113,0.112v3.929c0,0.06,0.054,0.113,0.113,0.113h0.392 c0.06,0,0.112-0.053,0.112-0.113v-3.929C65.152,43.921,65.099,43.869,65.04,43.869z"/><path d="M68.819,45.631c-0.493-0.201-0.754-0.409-0.754-0.748c0-0.219,0.172-0.534,0.67-0.534c0.344,0,0.76,0.273,0.801,0.297 c0.083,0.053,0.16,0.018,0.208-0.06c0.048-0.071,0.101-0.154,0.149-0.226c0.059-0.089,0.011-0.172-0.036-0.202 c-0.06-0.042-0.504-0.35-1.098-0.35c-0.943,0-1.299,0.635-1.299,1.098c0,0.689,0.475,1.003,1.08,1.259 c0.587,0.243,0.896,0.469,0.896,0.825c0,0.303-0.261,0.552-0.671,0.552c-0.457,0-0.914-0.38-0.949-0.41 c-0.065-0.053-0.148-0.03-0.202,0.048c-0.053,0.077-0.101,0.167-0.154,0.243c-0.06,0.101-0.018,0.143,0.035,0.189 c0.095,0.089,0.552,0.469,1.276,0.469c0.771,0,1.323-0.504,1.323-1.122C70.095,46.236,69.507,45.91,68.819,45.631z"/><path d="M77.293,47.47h-1.608v-3.489c0-0.06-0.054-0.112-0.113-0.112H75.18c-0.065,0-0.113,0.053-0.113,0.112v3.929 c0,0.06,0.047,0.113,0.113,0.113h2.113c0.065,0,0.113-0.053,0.113-0.113v-0.327C77.406,47.524,77.358,47.47,77.293,47.47z"/><path d="M79.958,43.869h-0.392c-0.06,0-0.113,0.053-0.113,0.112v3.929c0,0.06,0.054,0.113,0.113,0.113h0.392 c0.059,0,0.113-0.053,0.113-0.113v-3.929C80.07,43.921,80.017,43.869,79.958,43.869z"/><path d="M85.132,43.869h-2.374c-0.065,0-0.113,0.053-0.113,0.112v3.929c0,0.06,0.047,0.113,0.113,0.113h0.386 c0.059,0,0.113-0.053,0.113-0.113v-1.561h1.584c0.06,0,0.113-0.054,0.113-0.113V45.91c0-0.06-0.053-0.113-0.113-0.113h-1.584v-1.371 h1.875c0.065,0,0.113-0.053,0.113-0.112v-0.333C85.245,43.921,85.197,43.869,85.132,43.869z"/><path d="M89.915,44.426c0.065,0,0.113-0.053,0.113-0.112v-0.333c0-0.06-0.047-0.112-0.113-0.112h-2.374 c-0.065,0-0.113,0.053-0.113,0.112v3.929c0,0.06,0.048,0.113,0.113,0.113h2.374c0.065,0,0.113-0.053,0.113-0.113v-0.327 c0-0.06-0.047-0.113-0.113-0.113H88.04v-1.276h1.584c0.06,0,0.113-0.047,0.113-0.113v-0.333c0-0.06-0.053-0.113-0.113-0.113H88.04 v-1.211L89.915,44.426L89.915,44.426z"/></svg>